<svg width="50" height="39" viewBox="0 0 50 39" fill="none" xmlns="http://www.w3.org/2000/svg">
<path d="M44.4088 4.17333C45.1666 4.17333 45.7866 4.79333 45.7866 5.55111V33.1067C45.7866 33.8644 45.1666 34.4844 44.4088 34.4844H5.83106C5.07328 34.4844 4.45328 33.8644 4.45328 33.1067V5.55111C4.45328 4.79333 5.07328 4.17333 5.83106 4.17333H44.4088ZM5.83106 0.0400009C2.79134 0.0400009 0.319946 2.51139 0.319946 5.55111V33.1067C0.319946 36.1464 2.79134 38.6178 5.83106 38.6178H44.4088C47.4486 38.6178 49.9199 36.1464 49.9199 33.1067V5.55111C49.9199 2.51139 47.4486 0.0400009 44.4088 0.0400009H5.83106ZM18.2311 19.3289C19.6927 19.3289 21.0945 18.7483 22.128 17.7147C23.1615 16.6812 23.7422 15.2794 23.7422 13.8178C23.7422 12.3561 23.1615 10.9544 22.128 9.92083C21.0945 8.8873 19.6927 8.30667 18.2311 8.30667C16.7694 8.30667 15.3676 8.8873 14.3341 9.92083C13.3006 10.9544 12.7199 12.3561 12.7199 13.8178C12.7199 15.2794 13.3006 16.6812 14.3341 17.7147C15.3676 18.7483 16.7694 19.3289 18.2311 19.3289ZM15.4755 22.0844C11.6694 22.0844 8.58661 25.1672 8.58661 28.9733C8.58661 29.7311 9.20661 30.3511 9.96439 30.3511H26.4977C27.2555 30.3511 27.8755 29.7311 27.8755 28.9733C27.8755 25.1672 24.7927 22.0844 20.9866 22.0844H15.4755ZM32.6977 9.68444C31.5524 9.68444 30.6311 10.6058 30.6311 11.7511C30.6311 12.8964 31.5524 13.8178 32.6977 13.8178H39.5866C40.7319 13.8178 41.6533 12.8964 41.6533 11.7511C41.6533 10.6058 40.7319 9.68444 39.5866 9.68444H32.6977ZM32.6977 17.9511C31.5524 17.9511 30.6311 18.8725 30.6311 20.0178C30.6311 21.1631 31.5524 22.0844 32.6977 22.0844H39.5866C40.7319 22.0844 41.6533 21.1631 41.6533 20.0178C41.6533 18.8725 40.7319 17.9511 39.5866 17.9511H32.6977Z" fill="white"/>
</svg>
