<svg width="40" height="43" viewBox="0 0 40 43" fill="none" xmlns="http://www.w3.org/2000/svg">
<path d="M29.3333 4C30.0667 4 30.6667 4.6 30.6667 5.33333V37.3333C30.6667 38.0667 30.0667 38.6667 29.3333 38.6667H5.33333C4.6 38.6667 4 38.0667 4 37.3333V5.33333C4 4.6 4.6 4 5.33333 4H29.3333ZM5.33333 0C2.39167 0 0 2.39167 0 5.33333V37.3333C0 40.275 2.39167 42.6667 5.33333 42.6667H29.3333C32.275 42.6667 34.6667 40.275 34.6667 37.3333V5.33333C34.6667 2.39167 32.275 0 29.3333 0H5.33333ZM17.3333 21.3333C18.7478 21.3333 20.1044 20.7714 21.1046 19.7712C22.1048 18.771 22.6667 17.4145 22.6667 16C22.6667 14.5855 22.1048 13.229 21.1046 12.2288C20.1044 11.2286 18.7478 10.6667 17.3333 10.6667C15.9188 10.6667 14.5623 11.2286 13.5621 12.2288C12.5619 13.229 12 14.5855 12 16C12 17.4145 12.5619 18.771 13.5621 19.7712C14.5623 20.7714 15.9188 21.3333 17.3333 21.3333ZM14.6667 24C10.9833 24 8 26.9833 8 30.6667C8 31.4 8.6 32 9.33333 32H25.3333C26.0667 32 26.6667 31.4 26.6667 30.6667C26.6667 26.9833 23.6833 24 20 24H14.6667ZM40 6.66667C40 5.93333 39.4 5.33333 38.6667 5.33333C37.9333 5.33333 37.3333 5.93333 37.3333 6.66667V12C37.3333 12.7333 37.9333 13.3333 38.6667 13.3333C39.4 13.3333 40 12.7333 40 12V6.66667ZM38.6667 16C37.9333 16 37.3333 16.6 37.3333 17.3333V22.6667C37.3333 23.4 37.9333 24 38.6667 24C39.4 24 40 23.4 40 22.6667V17.3333C40 16.6 39.4 16 38.6667 16ZM40 28C40 27.2667 39.4 26.6667 38.6667 26.6667C37.9333 26.6667 37.3333 27.2667 37.3333 28V33.3333C37.3333 34.0667 37.9333 34.6667 38.6667 34.6667C39.4 34.6667 40 34.0667 40 33.3333V28Z" fill="white"/>
</svg>
