<svg width="38" height="34" viewBox="0 0 38 34" fill="none" xmlns="http://www.w3.org/2000/svg">
<path d="M37.99 16.9668C37.99 18.1621 37.0004 19.0984 35.8787 19.0984H33.7675L33.8136 29.7367C33.8136 29.916 33.8004 30.0953 33.7807 30.2746V31.3438C33.7807 32.8113 32.5996 34 31.1415 34H30.0859C30.0133 34 29.9407 34 29.8682 33.9934C29.7758 34 29.6834 34 29.5911 34H27.4468H25.8633C24.4052 34 23.2242 32.8113 23.2242 31.3438V29.75V25.5C23.2242 24.3246 22.2807 23.375 21.1129 23.375H16.8903C15.7225 23.375 14.779 24.3246 14.779 25.5V29.75V31.3438C14.779 32.8113 13.598 34 12.1399 34H10.5565H8.45176C8.35279 34 8.25383 33.9934 8.15486 33.9867C8.07569 33.9934 7.99651 34 7.91734 34H6.86169C5.40358 34 4.22258 32.8113 4.22258 31.3438V23.9062C4.22258 23.8465 4.22258 23.7801 4.22918 23.7203V19.0984H2.11129C0.92369 19.0984 0 18.1688 0 16.9668C0 16.3691 0.197933 15.8379 0.659778 15.373L17.5765 0.53125C18.0383 0.0664062 18.5662 0 19.028 0C19.4899 0 20.0177 0.132812 20.4135 0.464844L37.2643 15.373C37.7921 15.8379 38.056 16.3691 37.99 16.9668Z" fill="white"/>
</svg>
