<svg width="40" height="28" viewBox="0 0 40 28" fill="none" xmlns="http://www.w3.org/2000/svg">
<path d="M24 4V18H4V4H24ZM4 0C1.79375 0 0 1.79375 0 4V18C0 20.2062 1.79375 22 4 22H11.3313L10.6625 24H6C4.89375 24 4 24.8937 4 26C4 27.1063 4.89375 28 6 28H22C23.1063 28 24 27.1063 24 26C24 24.8937 23.1063 24 22 24H17.3312L16.6625 22H24C26.2062 22 28 20.2062 28 18V4C28 1.79375 26.2062 0 24 0H4ZM33 0C31.3438 0 30 1.34375 30 3V25C30 26.6562 31.3438 28 33 28H37C38.6562 28 40 26.6562 40 25V3C40 1.34375 38.6562 0 37 0H33ZM34 4H36C36.55 4 37 4.45 37 5C37 5.55 36.55 6 36 6H34C33.45 6 33 5.55 33 5C33 4.45 33.45 4 34 4ZM33 9C33 8.45 33.45 8 34 8H36C36.55 8 37 8.45 37 9C37 9.55 36.55 10 36 10H34C33.45 10 33 9.55 33 9ZM35 19C35.5304 19 36.0391 19.2107 36.4142 19.5858C36.7893 19.9609 37 20.4696 37 21C37 21.5304 36.7893 22.0391 36.4142 22.4142C36.0391 22.7893 35.5304 23 35 23C34.4696 23 33.9609 22.7893 33.5858 22.4142C33.2107 22.0391 33 21.5304 33 21C33 20.4696 33.2107 19.9609 33.5858 19.5858C33.9609 19.2107 34.4696 19 35 19Z" fill="white"/>
</svg>
