<svg width="43" height="43" viewBox="0 0 43 43" fill="none" xmlns="http://www.w3.org/2000/svg">
<path d="M6.60319 0.420922C5.80538 -0.200548 4.67165 -0.124964 3.94943 0.588886L0.590238 3.94818C-0.12359 4.66203 -0.199172 5.7958 0.413881 6.60203L7.13226 15.3362C7.51017 15.8317 8.10642 16.1256 8.72787 16.1256H13.2712L22.425 25.2797C21.1905 27.7152 21.5852 30.7722 23.6259 32.8045L33.0316 42.2106C34.0814 43.2603 35.7861 43.2603 36.8359 42.2106L42.2106 36.8357C43.2603 35.7859 43.2603 34.0811 42.2106 33.0313L32.8049 23.6253C30.7726 21.5929 27.7157 21.1898 25.2803 22.4243L16.1265 13.2702V8.73518C16.1265 8.10531 15.8326 7.51743 15.3371 7.13951L6.60319 0.420922ZM1.67358 33.2664C0.607034 34.333 0.00237981 35.7859 0.00237981 37.2976C0.00237981 40.4469 2.55536 43 5.7046 43C7.21624 43 8.66909 42.3953 9.73563 41.3287L19.6284 31.4356C18.9734 29.6804 18.8726 27.774 19.3261 25.9684L14.1446 20.7867L1.67358 33.2664ZM43 12.0945C43 11.2127 42.9076 10.356 42.7313 9.53301C42.5297 8.59241 41.3792 8.34886 40.699 9.02912L35.3327 14.3956C35.0807 14.6475 34.7364 14.7903 34.3837 14.7903H29.5632C28.8242 14.7903 28.2196 14.1856 28.2196 13.4466V8.6176C28.2196 8.26488 28.3623 7.92055 28.6143 7.6686L33.9806 2.30213C34.6608 1.62187 34.4173 0.471311 33.4767 0.269753C32.6453 0.0933902 31.7887 0.00100956 30.9069 0.00100956C24.2305 0.00100956 18.8138 5.41787 18.8138 12.0945V12.1617L25.9773 19.3254C29.0006 18.5611 32.343 19.3674 34.7112 21.7357L36.0297 23.0542C40.1447 21.1226 43 16.9403 43 12.0945ZM4.70524 36.2814C4.70524 35.7468 4.91759 35.2342 5.29558 34.8562C5.67356 34.4782 6.18621 34.2658 6.72076 34.2658C7.25531 34.2658 7.76796 34.4782 8.14594 34.8562C8.52392 35.2342 8.73627 35.7468 8.73627 36.2814C8.73627 36.816 8.52392 37.3286 8.14594 37.7066C7.76796 38.0846 7.25531 38.297 6.72076 38.297C6.18621 38.297 5.67356 38.0846 5.29558 37.7066C4.91759 37.3286 4.70524 36.816 4.70524 36.2814Z" fill="#6366F1"/>
</svg>
